# xmcd CD database file
# Copyright (C) 1993-1996 Ti Kan
#
# Track frame offsets:
#	182
#	15877
#	32112
#	49600
#	67885
#	87272
#	109967
#	124622
#	139807
#	152920
#	167722
#	182565
#	196597
#	211267
#	223115
#	233725
#	251492
#
# Disc length: 3558 seconds
#
# Revision: 1
# Processed by: cddbd v1.4b41PL1 Copyright (c) Steve Scherf et al.
# Submitted via: xmcd 2.0
#
DISCID=de0de411
DTITLE=Louis Armstrong - Selection of (2/2)
DYEAR=1900
DGENRE=
TTITLE0=Cheek to cheek
TTITLE1=Stars fell on Alabama
TTITLE2=Can't we be friends
TTITLE3=Love is here to stay
TTITLE4=Under a blanket of blue
TTITLE5=Tenderly
TTITLE6=You can't loose a broken heart
TTITLE7=My sweet hunk O'trash
TTITLE8=You won't be satisfied
TTITLE9=The frim fram sauce
TTITLE10=Oops!
TTITLE11=Dream a litle dream of me
TTITLE12=Can anyone explain ?
TTITLE13=Necessary evil
TTITLE14=Who walks in when I walk out
TTITLE15=A fine romance
TTITLE16=I'm puttin' all my eggs in one basket
EXTD=
EXTT0=
EXTT1=
EXTT2=
EXTT3=
EXTT4=
EXTT5=
EXTT6=
EXTT7=
EXTT8=
EXTT9=
EXTT10=
EXTT11=
EXTT12=
EXTT13=
EXTT14=
EXTT15=
EXTT16=
PLAYORDER=
